<svg width="55" height="19" viewBox="0 0 55 19" fill="none" xmlns="http://www.w3.org/2000/svg">
<path d="M6.296 18.24C5.176 18.24 4.192 18.032 3.344 17.616C2.512 17.184 1.864 16.584 1.4 15.816C0.952 15.032 0.728 14.112 0.728 13.056V5.424C0.728 4.352 0.952 3.432 1.4 2.664C1.864 1.896 2.512 1.304 3.344 0.887999C4.192 0.455999 5.176 0.24 6.296 0.24C7.432 0.24 8.408 0.455999 9.224 0.887999C10.056 1.304 10.704 1.896 11.168 2.664C11.632 3.432 11.864 4.352 11.864 5.424H8.84C8.84 4.592 8.616 3.96 8.168 3.528C7.736 3.096 7.112 2.88 6.296 2.88C5.48 2.88 4.848 3.096 4.4 3.528C3.952 3.96 3.728 4.584 3.728 5.4V13.056C3.728 13.872 3.952 14.504 4.4 14.952C4.848 15.384 5.48 15.6 6.296 15.6C7.112 15.6 7.736 15.384 8.168 14.952C8.616 14.504 8.84 13.872 8.84 13.056H11.864C11.864 14.096 11.632 15.008 11.168 15.792C10.704 16.576 10.056 17.184 9.224 17.616C8.408 18.032 7.432 18.24 6.296 18.24ZM20.5906 18.24C19.4706 18.24 18.4946 18.032 17.6626 17.616C16.8466 17.184 16.2146 16.584 15.7666 15.816C15.3346 15.032 15.1186 14.112 15.1186 13.056V5.424C15.1186 4.368 15.3346 3.456 15.7666 2.688C16.2146 1.904 16.8466 1.304 17.6626 0.887999C18.4946 0.455999 19.4706 0.24 20.5906 0.24C21.7266 0.24 22.7026 0.455999 23.5186 0.887999C24.3346 1.304 24.9586 1.904 25.3906 2.688C25.8386 3.456 26.0626 4.36 26.0626 5.4V13.056C26.0626 14.112 25.8386 15.032 25.3906 15.816C24.9586 16.584 24.3346 17.184 23.5186 17.616C22.7026 18.032 21.7266 18.24 20.5906 18.24ZM20.5906 15.6C21.4066 15.6 22.0226 15.384 22.4386 14.952C22.8546 14.504 23.0626 13.872 23.0626 13.056V5.424C23.0626 4.592 22.8546 3.96 22.4386 3.528C22.0226 3.096 21.4066 2.88 20.5906 2.88C19.7746 2.88 19.1586 3.096 18.7426 3.528C18.3266 3.96 18.1186 4.592 18.1186 5.424V13.056C18.1186 13.872 18.3266 14.504 18.7426 14.952C19.1746 15.384 19.7906 15.6 20.5906 15.6ZM29.5813 18V0.48H34.7893C35.9733 0.48 36.9973 0.704 37.8613 1.152C38.7413 1.6 39.4213 2.232 39.9012 3.048C40.3813 3.864 40.6213 4.832 40.6213 5.952V12.504C40.6213 13.608 40.3813 14.576 39.9012 15.408C39.4213 16.224 38.7413 16.864 37.8613 17.328C36.9973 17.776 35.9733 18 34.7893 18H29.5813ZM32.5813 15.24H34.7893C35.6533 15.24 36.3413 15 36.8533 14.52C37.3653 14.024 37.6213 13.352 37.6213 12.504V5.952C37.6213 5.12 37.3653 4.464 36.8533 3.984C36.3413 3.488 35.6533 3.24 34.7893 3.24H32.5813V15.24ZM44.2839 18V0.48H54.7959V3.096H47.2359V7.656H53.9559V10.248H47.2359V15.384H54.7959V18H44.2839Z" fill="black"/>
</svg>
